<mxfile host="app.diagrams.net" modified="2021-10-08T14:25:29.122Z" agent="5.0 (Windows)" etag="UW7R1L5L_Op-tPas4a4i" version="15.4.3" type="github">
  <diagram name="Page-1" id="e7e014a7-5840-1c2e-5031-d8a46d1fe8dd">
    <mxGraphModel dx="1574" dy="813" grid="1" gridSize="10" guides="1" tooltips="1" connect="1" arrows="1" fold="1" page="1" pageScale="1" pageWidth="1169" pageHeight="826" background="none" math="0" shadow="0">
      <root>
        <mxCell id="0" />
        <mxCell id="1" parent="0" />
        <mxCell id="2" value="Users" style="swimlane;whiteSpace=wrap" parent="1" vertex="1">
          <mxGeometry x="165" y="60" width="255.5" height="740" as="geometry" />
        </mxCell>
        <mxCell id="5" value="" style="ellipse;shape=startState;fillColor=#000000;strokeColor=#ff0000;" parent="2" vertex="1">
          <mxGeometry x="100" y="40" width="30" height="30" as="geometry" />
        </mxCell>
        <mxCell id="6" value="" style="edgeStyle=elbowEdgeStyle;elbow=horizontal;verticalAlign=bottom;endArrow=open;endSize=8;strokeColor=#FF0000;endFill=1;rounded=0" parent="2" source="5" target="10" edge="1">
          <mxGeometry x="100" y="40" as="geometry">
            <mxPoint x="115.5" y="322" as="targetPoint" />
          </mxGeometry>
        </mxCell>
        <mxCell id="10" value="Request to &#xa;&#xa;Generate BULK TS" style="" parent="2" vertex="1">
          <mxGeometry x="60" y="220" width="110" height="50" as="geometry" />
        </mxCell>
        <mxCell id="SXdFW6bV2_QY-OcFJXrF-66" value="idle" style="" vertex="1" parent="2">
          <mxGeometry x="59" y="110" width="110" height="50" as="geometry" />
        </mxCell>
        <mxCell id="SXdFW6bV2_QY-OcFJXrF-70" value="" style="ellipse;shape=endState;fillColor=#000000;strokeColor=#ff0000" vertex="1" parent="2">
          <mxGeometry x="105" y="600" width="30" height="30" as="geometry" />
        </mxCell>
        <mxCell id="SXdFW6bV2_QY-OcFJXrF-71" value="" style="endArrow=open;strokeColor=#FF0000;endFill=1;rounded=0;exitX=0.5;exitY=1;exitDx=0;exitDy=0;" edge="1" parent="2" target="SXdFW6bV2_QY-OcFJXrF-70" source="SXdFW6bV2_QY-OcFJXrF-73">
          <mxGeometry relative="1" as="geometry">
            <mxPoint x="115" y="310" as="sourcePoint" />
          </mxGeometry>
        </mxCell>
        <mxCell id="SXdFW6bV2_QY-OcFJXrF-74" value="" style="edgeStyle=orthogonalEdgeStyle;rounded=0;orthogonalLoop=1;jettySize=auto;html=1;strokeColor=#FF0000;" edge="1" parent="2" source="SXdFW6bV2_QY-OcFJXrF-72" target="SXdFW6bV2_QY-OcFJXrF-73">
          <mxGeometry relative="1" as="geometry" />
        </mxCell>
        <mxCell id="SXdFW6bV2_QY-OcFJXrF-72" value="Receive Bulk TS FIle &#xa;&#xa;and Report" style="" vertex="1" parent="2">
          <mxGeometry x="60" y="400" width="120" height="50" as="geometry" />
        </mxCell>
        <mxCell id="SXdFW6bV2_QY-OcFJXrF-73" value="Do Verification" style="" vertex="1" parent="2">
          <mxGeometry x="60" y="500" width="120" height="50" as="geometry" />
        </mxCell>
        <mxCell id="3" value="IT Help Desk" style="swimlane;whiteSpace=wrap;startSize=23;" parent="1" vertex="1">
          <mxGeometry x="420.5" y="60" width="240" height="740" as="geometry" />
        </mxCell>
        <mxCell id="13" value="" style="ellipse;shape=startState;fillColor=#000000;strokeColor=#ff0000;" parent="3" vertex="1">
          <mxGeometry x="115.5" y="40" width="30" height="30" as="geometry" />
        </mxCell>
        <mxCell id="14" value="" style="edgeStyle=elbowEdgeStyle;elbow=horizontal;verticalAlign=bottom;endArrow=open;endSize=8;strokeColor=#FF0000;endFill=1;rounded=0" parent="3" source="13" target="15" edge="1">
          <mxGeometry x="95.5" y="20" as="geometry">
            <mxPoint x="110.5" y="90" as="targetPoint" />
          </mxGeometry>
        </mxCell>
        <mxCell id="15" value="idle" style="" parent="3" vertex="1">
          <mxGeometry x="75.5" y="110" width="110" height="50" as="geometry" />
        </mxCell>
        <mxCell id="16" value="Check for new Request" style="" parent="3" vertex="1">
          <mxGeometry x="60" y="220" width="140" height="50" as="geometry" />
        </mxCell>
        <mxCell id="17" value="" style="endArrow=open;strokeColor=#FF0000;endFill=1;rounded=0" parent="3" source="15" target="16" edge="1">
          <mxGeometry relative="1" as="geometry" />
        </mxCell>
        <mxCell id="18" value="Assign to PIC" style="" parent="3" vertex="1">
          <mxGeometry x="75.5" y="325" width="110" height="50" as="geometry" />
        </mxCell>
        <mxCell id="19" value="" style="endArrow=open;strokeColor=#FF0000;endFill=1;rounded=0" parent="3" source="16" target="18" edge="1">
          <mxGeometry relative="1" as="geometry" />
        </mxCell>
        <mxCell id="4" value="PIC to Generate Bulk TS " style="swimlane;whiteSpace=wrap;startSize=23;" parent="1" vertex="1">
          <mxGeometry x="660.5" y="60" width="429.5" height="740" as="geometry" />
        </mxCell>
        <mxCell id="SXdFW6bV2_QY-OcFJXrF-45" value="" style="edgeStyle=orthogonalEdgeStyle;rounded=0;orthogonalLoop=1;jettySize=auto;html=1;strokeColor=#FF0000;" edge="1" parent="4" source="33" target="SXdFW6bV2_QY-OcFJXrF-44">
          <mxGeometry relative="1" as="geometry" />
        </mxCell>
        <mxCell id="33" value="Do Coordination &#xa;&#xa;from Internal IT Teamto get Support&#xa;&#xa;to execute bulk TS on scheduled time &#xa;&#xa;(After Working Hour)" style="" parent="4" vertex="1">
          <mxGeometry x="70" y="192" width="210" height="118" as="geometry" />
        </mxCell>
        <mxCell id="SXdFW6bV2_QY-OcFJXrF-41" value="idle" style="" vertex="1" parent="4">
          <mxGeometry x="120" y="112" width="110" height="50" as="geometry" />
        </mxCell>
        <mxCell id="SXdFW6bV2_QY-OcFJXrF-46" value="" style="edgeStyle=orthogonalEdgeStyle;rounded=0;orthogonalLoop=1;jettySize=auto;html=1;strokeColor=#FF0000;" edge="1" parent="4" source="SXdFW6bV2_QY-OcFJXrF-42" target="SXdFW6bV2_QY-OcFJXrF-41">
          <mxGeometry relative="1" as="geometry" />
        </mxCell>
        <mxCell id="SXdFW6bV2_QY-OcFJXrF-42" value="" style="ellipse;shape=startState;fillColor=#000000;strokeColor=#ff0000;" vertex="1" parent="4">
          <mxGeometry x="160" y="42" width="30" height="30" as="geometry" />
        </mxCell>
        <mxCell id="SXdFW6bV2_QY-OcFJXrF-43" value="" style="endArrow=open;strokeColor=#FF0000;endFill=1;rounded=0;exitX=0.5;exitY=1;exitDx=0;exitDy=0;" edge="1" parent="4" source="SXdFW6bV2_QY-OcFJXrF-41" target="33">
          <mxGeometry relative="1" as="geometry">
            <mxPoint x="320.3863636363635" y="298" as="sourcePoint" />
            <mxPoint x="320.11363636363626" y="358" as="targetPoint" />
          </mxGeometry>
        </mxCell>
        <mxCell id="SXdFW6bV2_QY-OcFJXrF-53" value="" style="edgeStyle=orthogonalEdgeStyle;rounded=0;orthogonalLoop=1;jettySize=auto;html=1;strokeColor=#FF0000;" edge="1" parent="4" source="SXdFW6bV2_QY-OcFJXrF-44" target="SXdFW6bV2_QY-OcFJXrF-48">
          <mxGeometry relative="1" as="geometry" />
        </mxCell>
        <mxCell id="SXdFW6bV2_QY-OcFJXrF-44" value="&lt;div&gt;Support&lt;/div&gt;&lt;div&gt;Confirmed&lt;br&gt;&lt;/div&gt;" style="rhombus;whiteSpace=wrap;html=1;" vertex="1" parent="4">
          <mxGeometry x="135.25" y="348" width="80" height="80" as="geometry" />
        </mxCell>
        <mxCell id="SXdFW6bV2_QY-OcFJXrF-47" value="N" style="edgeStyle=orthogonalEdgeStyle;strokeColor=#FF0000;endArrow=open;endFill=1;rounded=0;exitX=1;exitY=0.5;exitDx=0;exitDy=0;entryX=1;entryY=0.5;entryDx=0;entryDy=0;" edge="1" parent="4" source="SXdFW6bV2_QY-OcFJXrF-44" target="33">
          <mxGeometry width="100" height="100" relative="1" as="geometry">
            <mxPoint x="-44.5" y="360" as="sourcePoint" />
            <mxPoint x="130" y="147" as="targetPoint" />
            <Array as="points">
              <mxPoint x="215" y="391" />
              <mxPoint x="310" y="391" />
              <mxPoint x="310" y="251" />
            </Array>
          </mxGeometry>
        </mxCell>
        <mxCell id="SXdFW6bV2_QY-OcFJXrF-48" value="Generate Bulk TS &#xa;&#xa;and Report" style="" vertex="1" parent="4">
          <mxGeometry x="119.25" y="469" width="110" height="50" as="geometry" />
        </mxCell>
        <mxCell id="SXdFW6bV2_QY-OcFJXrF-64" value="N" style="edgeStyle=orthogonalEdgeStyle;rounded=0;orthogonalLoop=1;jettySize=auto;html=1;exitX=1;exitY=0.5;exitDx=0;exitDy=0;entryX=1;entryY=0.25;entryDx=0;entryDy=0;strokeColor=#FF0000;" edge="1" parent="4" source="SXdFW6bV2_QY-OcFJXrF-56" target="33">
          <mxGeometry relative="1" as="geometry">
            <Array as="points">
              <mxPoint x="340" y="590" />
              <mxPoint x="340" y="222" />
            </Array>
          </mxGeometry>
        </mxCell>
        <mxCell id="SXdFW6bV2_QY-OcFJXrF-56" value="Done" style="rhombus;whiteSpace=wrap;html=1;" vertex="1" parent="4">
          <mxGeometry x="134.25" y="550" width="80" height="80" as="geometry" />
        </mxCell>
        <mxCell id="SXdFW6bV2_QY-OcFJXrF-57" value="" style="endArrow=open;strokeColor=#FF0000;endFill=1;rounded=0;exitX=0.5;exitY=1;exitDx=0;exitDy=0;entryX=0.5;entryY=0;entryDx=0;entryDy=0;" edge="1" parent="4" source="SXdFW6bV2_QY-OcFJXrF-48" target="SXdFW6bV2_QY-OcFJXrF-56">
          <mxGeometry relative="1" as="geometry">
            <mxPoint x="320.61904761904725" y="340" as="sourcePoint" />
            <mxPoint x="320.88095238095207" y="395" as="targetPoint" />
          </mxGeometry>
        </mxCell>
        <mxCell id="SXdFW6bV2_QY-OcFJXrF-67" value="&lt;div&gt;Infom&lt;/div&gt;&lt;div&gt;IT Team&lt;br&gt;&lt;/div&gt;" style="edgeStyle=orthogonalEdgeStyle;rounded=0;orthogonalLoop=1;jettySize=auto;html=1;exitX=0.75;exitY=0.5;exitDx=0;exitDy=0;exitPerimeter=0;entryX=1;entryY=0.25;entryDx=0;entryDy=0;strokeColor=#FF0000;" edge="1" parent="4" source="SXdFW6bV2_QY-OcFJXrF-58" target="SXdFW6bV2_QY-OcFJXrF-41">
          <mxGeometry relative="1" as="geometry">
            <Array as="points">
              <mxPoint x="188" y="710" />
              <mxPoint x="390" y="710" />
              <mxPoint x="390" y="125" />
            </Array>
          </mxGeometry>
        </mxCell>
        <mxCell id="SXdFW6bV2_QY-OcFJXrF-58" value="" style="shape=line;strokeWidth=6;strokeColor=#ff0000;rotation=0;" vertex="1" parent="4">
          <mxGeometry x="150.25" y="670" width="50" height="10" as="geometry" />
        </mxCell>
        <mxCell id="SXdFW6bV2_QY-OcFJXrF-59" value="Y" style="edgeStyle=orthogonalEdgeStyle;rounded=0;orthogonalLoop=1;jettySize=auto;html=1;strokeColor=#FF0000;entryX=0.5;entryY=0.35;entryDx=0;entryDy=0;entryPerimeter=0;exitX=0.5;exitY=1;exitDx=0;exitDy=0;" edge="1" parent="4" source="SXdFW6bV2_QY-OcFJXrF-56" target="SXdFW6bV2_QY-OcFJXrF-58">
          <mxGeometry relative="1" as="geometry">
            <mxPoint x="797.5" y="142" as="sourcePoint" />
            <mxPoint x="797.5" y="181.9999999999999" as="targetPoint" />
          </mxGeometry>
        </mxCell>
        <mxCell id="20" value="" style="endArrow=open;strokeColor=#FF0000;endFill=1;rounded=0;entryX=0;entryY=0.5;entryDx=0;entryDy=0;" parent="1" source="10" target="16" edge="1">
          <mxGeometry relative="1" as="geometry" />
        </mxCell>
        <mxCell id="37" value="" style="edgeStyle=orthogonalEdgeStyle;strokeColor=#FF0000;endArrow=open;endFill=1;rounded=0;exitX=1;exitY=0.5;exitDx=0;exitDy=0;entryX=0;entryY=0.5;entryDx=0;entryDy=0;" parent="1" target="SXdFW6bV2_QY-OcFJXrF-41" edge="1" source="18">
          <mxGeometry width="100" height="100" relative="1" as="geometry">
            <mxPoint x="630.5" y="489.5" as="sourcePoint" />
            <mxPoint x="750.5" y="489.5" as="targetPoint" />
          </mxGeometry>
        </mxCell>
        <mxCell id="SXdFW6bV2_QY-OcFJXrF-65" value="TS and Report Send to user and resolve ticket" style="edgeStyle=orthogonalEdgeStyle;rounded=0;orthogonalLoop=1;jettySize=auto;html=1;exitX=0;exitY=0.5;exitDx=0;exitDy=0;exitPerimeter=0;strokeColor=#FF0000;entryX=0;entryY=0.5;entryDx=0;entryDy=0;" edge="1" parent="1" source="SXdFW6bV2_QY-OcFJXrF-58" target="SXdFW6bV2_QY-OcFJXrF-72">
          <mxGeometry relative="1" as="geometry">
            <mxPoint x="220" y="490" as="targetPoint" />
            <Array as="points">
              <mxPoint x="820" y="735" />
              <mxPoint x="820" y="770" />
              <mxPoint x="204" y="770" />
              <mxPoint x="204" y="485" />
            </Array>
          </mxGeometry>
        </mxCell>
      </root>
    </mxGraphModel>
  </diagram>
</mxfile>
